<svg width="876" height="477" xmlns="http://www.w3.org/2000/svg" xmlns:xlink="http://www.w3.org/1999/xlink" xml:space="preserve" overflow="hidden"><g transform="translate(-202 -121)"><path d="M657 122 1077 122 1077 595 657 595Z" stroke="#042433" stroke-width="2" stroke-miterlimit="8" fill="#D1D1D1"/><path d="M203 124 624 124 624 597 203 597Z" stroke="#042433" stroke-width="2" stroke-miterlimit="8" fill="#D1D1D1"/><path d="M344 224 449 224 449 257 344 257Z" fill="#AEAEAE"/><text font-family="Arial,Arial_MSFontService,sans-serif" font-weight="400" font-size="19" transform="translate(364.68 247)">Llm </text><text font-family="Arial,Arial_MSFontService,sans-serif" font-weight="400" font-size="19" transform="translate(399.847 247)">cal</text><text font-family="Arial,Arial_MSFontService,sans-serif" font-weight="400" font-size="19" transform="translate(423.68 247)">l</text><path d="M272 301 344 301 344 333 272 333Z" fill="#AEAEAE"/><text font-family="Arial,Arial_MSFontService,sans-serif" font-weight="400" font-size="19" transform="translate(290.708 324)">Tex</text><text font-family="Arial,Arial_MSFontService,sans-serif" font-weight="400" font-size="19" transform="translate(319.641 324)">t</text><path d="M423 296 598 296 598 328 423 328Z" fill="#AEAEAE"/><text font-family="Arial,Arial_MSFontService,sans-serif" font-weight="400" font-size="19" transform="translate(433.91 318)">Function </text><text font-family="Arial,Arial_MSFontService,sans-serif" font-weight="400" font-size="19" transform="translate(512.062 318)">/ </text><text font-family="Arial,Arial_MSFontService,sans-serif" font-weight="400" font-size="19" transform="translate(522.62 318)">Tool call</text><path d="M348 140 444 140 444 173 348 173Z" fill="#AEAEAE"/><text font-family="Arial,Arial_MSFontService,sans-serif" font-weight="700" font-size="19" transform="translate(357.863 163)">Vkt</text><text font-family="Arial,Arial_MSFontService,sans-serif" font-weight="700" font-size="19" transform="translate(387.43 163)">.</text><text font-family="Arial,Arial_MSFontService,sans-serif" font-weight="700" font-size="19" transform="translate(392.709 163)">Chat </text><path d="M256 413 360 413 360 445 256 445Z" fill="#AEAEAE"/><text font-family="Arial,Arial_MSFontService,sans-serif" font-weight="400" font-size="19" transform="translate(271.966 436)">Vkt</text><text font-family="Arial,Arial_MSFontService,sans-serif" font-weight="400" font-size="19" transform="translate(299.418 436)">.</text><text font-family="Arial,Arial_MSFontService,sans-serif" font-weight="400" font-size="19" transform="translate(304.696 436)">Chat</text><path d="M418 419 610 419 610 448 418 448Z" fill="#AEAEAE"/><text font-family="Arial,Arial_MSFontService,sans-serif" font-weight="400" font-size="19" transform="translate(427.758 438)">vkt</text><text font-family="Arial,Arial_MSFontService,sans-serif" font-weight="400" font-size="19" transform="translate(452.037 438)">.</text><text font-family="Arial,Arial_MSFontService,sans-serif" font-weight="400" font-size="19" transform="translate(457.316 438)">Storage</text><text font-family="Arial,Arial_MSFontService,sans-serif" font-weight="400" font-size="19" transform="translate(521.925 438)">().</text><text font-family="Arial,Arial_MSFontService,sans-serif" font-weight="400" font-size="19" transform="translate(539.858 438)">set</text><text font-family="Arial,Arial_MSFontService,sans-serif" font-weight="400" font-size="19" transform="translate(565.204 438)">(..)</text><path d="M397 173 397 217.895 395 217.895 395 173ZM400 216.561 396 224.561 392 216.561Z"/><path d="M0-1 36.9578-1 36.9578 53.8086 34.9578 53.8086 34.9578 0 35.9578 1 0 1ZM39.9578 52.4753 35.9578 60.4753 31.9578 52.4753Z" transform="matrix(-1 1.22465e-16 1.22465e-16 1 343.958 240)"/><path d="M449 239 511.979 239 511.979 288.587 509.979 288.587 509.979 240 510.979 241 449 241ZM514.979 287.254 510.979 295.254 506.979 287.254Z"/><path d="M309 333 309 408.379 307 408.379 307 333ZM312 407.045 308 415.045 304 407.045Z"/><path d="M512 328 512 416.684 510 416.684 510 328ZM515 415.351 511 423.351 507 415.351Z"/><path d="M728 276 1028 276 1028 305 728 305Z" fill="#AEAEAE"/><text font-family="Arial,Arial_MSFontService,sans-serif" font-weight="400" font-size="19" transform="translate(752.196 295)">vkt</text><text font-family="Arial,Arial_MSFontService,sans-serif" font-weight="400" font-size="19" transform="translate(776.475 295)">.</text><text font-family="Arial,Arial_MSFontService,sans-serif" font-weight="400" font-size="19" transform="translate(781.754 295)">Storage</text><text font-family="Arial,Arial_MSFontService,sans-serif" font-weight="400" font-size="19" transform="translate(846.362 295)">().</text><text font-family="Arial,Arial_MSFontService,sans-serif" font-weight="400" font-size="19" transform="translate(864.295 295)">get</text><text font-family="Arial,Arial_MSFontService,sans-serif" font-weight="400" font-size="19" transform="translate(890.708 295)">(</text><text font-family="Arial,Arial_MSFontService,sans-serif" font-weight="400" font-size="19" transform="translate(897.035 295)">…</text><text font-family="Arial,Arial_MSFontService,sans-serif" font-weight="400" font-size="19" transform="translate(916.035 295)">).</text><text font-family="Arial,Arial_MSFontService,sans-serif" font-weight="400" font-size="19" transform="translate(925.862 295)">getvalue</text><text font-family="Arial,Arial_MSFontService,sans-serif" font-weight="400" font-size="19" transform="translate(996.2 295)">()</text><path d="M806 145 953 145 953 178 806 178Z" fill="#AEAEAE"/><text font-family="Arial,Arial_MSFontService,sans-serif" font-weight="700" font-size="19" transform="translate(834.045 168)">@</text><text font-family="Arial,Arial_MSFontService,sans-serif" font-weight="700" font-size="19" transform="translate(852.572 168)">vkt</text><text font-family="Arial,Arial_MSFontService,sans-serif" font-weight="700" font-size="19" transform="translate(880.033 168)">.</text><text font-family="Arial,Arial_MSFontService,sans-serif" font-weight="700" font-size="19" transform="translate(885.312 168)">view</text><path d="M794 501 966 501 966 534 794 534Z" fill="#AEAEAE"/><text font-family="Arial,Arial_MSFontService,sans-serif" font-weight="400" font-size="19" transform="translate(834.387 524)">View result</text><path d="M880 178 880 263.484 878 263.484 878 178ZM883 262.151 879 270.151 875 262.151Z"/><path d="M879 305 879 395.477 877 395.477 877 305ZM882 394.144 878 402.144 874 394.144Z"/><path d="M791 402 963 402 963 435 791 435Z" fill="#AEAEAE"/><text font-family="Arial,Arial_MSFontService,sans-serif" font-weight="400" font-size="19" transform="translate(830.685 425)">Processing </text><path d="M878 435 878 496.737 876 496.737 876 435ZM881 495.403 877 503.403 873 495.403Z"/><path d="M236 521 386 521 386 549 236 549Z" fill="#AEAEAE"/><text font-family="Arial,Arial_MSFontService,sans-serif" font-weight="400" font-size="19" transform="translate(251.114 540)">vkt</text><text font-family="Arial,Arial_MSFontService,sans-serif" font-weight="400" font-size="19" transform="translate(275.393 540)">.</text><text font-family="Arial,Arial_MSFontService,sans-serif" font-weight="400" font-size="19" transform="translate(280.672 540)">ChatResult</text><path d="M311 456 311 508.916 309 508.916 309 456ZM314 507.583 310 515.583 306 507.583Z"/><path d="M0-1 8-1 8 1 0 1ZM14-1 22-1 22 1 14 1ZM28-1 36-1 36 1 28 1ZM42-1 50-1 50 1 42 1ZM56-1 64-1 64 1 56 1ZM70.7266 0.273399 70.7266 8.2734 68.7266 8.2734 68.7266 0.273399ZM70.7266 14.2734 70.7266 22.2734 68.7266 22.2734 68.7266 14.2734ZM70.7266 28.2734 70.7266 36.2734 68.7266 36.2734 68.7266 28.2734ZM70.7266 42.2734 70.7266 50.2734 68.7266 50.2734 68.7266 42.2734ZM70.7266 56.2734 70.7266 64.2734 68.7266 64.2734 68.7266 56.2734ZM70.7266 70.2734 70.7266 78.2734 68.7266 78.2734 68.7266 70.2734ZM70.7266 84.2734 70.7266 92.2734 68.7266 92.2734 68.7266 84.2734ZM70.7266 98.2734 70.7266 106.273 68.7266 106.273 68.7266 98.2734ZM70.7266 112.273 70.7266 120.273 68.7266 120.273 68.7266 112.273ZM70.7266 126.273 70.7266 134.273 68.7266 134.273 68.7266 126.273ZM70.7266 140.273 70.7266 142.933 69.7266 141.933 75.0674 141.933 75.0674 143.933 68.7266 143.933 68.7266 140.273ZM81.0674 141.933 89.0674 141.933 89.0674 143.933 81.0674 143.933ZM95.0674 141.933 103.067 141.933 103.067 143.933 95.0674 143.933ZM109.067 141.933 110.554 141.933 110.554 143.933 109.067 143.933ZM109.221 138.933 117.221 142.933 109.221 146.933Z" fill="#747474" transform="matrix(1 0 0 -1 610 433.933)"/></g></svg>